<svg width="44" height="50" viewBox="0 0 44 50" fill="none" xmlns="http://www.w3.org/2000/svg">
<path d="M11.9841 23.4778C11.9841 29.3908 16.7775 34.1841 22.6904 34.1841C28.6034 34.1841 33.3967 29.3908 33.3967 23.4778C33.3967 17.5649 28.6034 12.7715 22.6904 12.7715C16.7804 12.7781 11.9908 17.5678 11.9841 23.4778ZM22.6904 24.1544C20.9138 24.1643 19.4083 22.8485 19.181 21.0863C18.9537 19.3245 20.0758 17.6692 21.7969 17.2282V16.3231C21.7969 15.9132 22.129 15.5812 22.5389 15.5812C22.9488 15.5812 23.2809 15.9132 23.2809 16.3231V17.1831C24.9644 17.468 26.1932 18.9316 26.1825 20.6395C26.1825 21.0445 25.8541 21.3728 25.4492 21.3728C25.0443 21.3728 24.7159 21.0445 24.7159 20.6395C24.7147 19.5187 23.8054 18.6111 22.6846 18.6124C21.5638 18.6136 20.6562 19.5233 20.6579 20.6441C20.6591 21.7645 21.5688 22.6721 22.6896 22.6704C24.5068 22.6808 26.016 24.0753 26.1696 25.8863C26.3232 27.6969 25.0703 29.3258 23.2809 29.6421V30.5265C23.2809 30.9364 22.9488 31.2684 22.5389 31.2684C22.129 31.2684 21.7969 30.9364 21.7969 30.5265V29.5965C20.2463 29.187 19.1628 27.7892 19.1524 26.1856C19.1524 25.7712 19.4886 25.435 19.9031 25.435C20.3176 25.435 20.6538 25.7712 20.6538 26.1856C20.6562 27.222 21.4371 28.0911 22.4673 28.2041C22.5054 28.1979 22.5443 28.195 22.5832 28.1946C22.6391 28.1946 22.6946 28.2012 22.7492 28.2136C23.8622 28.1863 24.7453 27.268 24.7292 26.155C24.713 25.0416 23.8034 24.1494 22.6904 24.1544Z" fill="#4955A3"/>
<path d="M39.873 39.2888C39.8677 39.2917 39.8619 39.2946 39.8557 39.2975L32.9681 42.5515C33.0422 42.9328 33.0745 43.3208 33.0641 43.7091C33.0534 44.1108 32.7246 44.4308 32.323 44.4308C32.3159 44.4308 32.3089 44.4308 32.3019 44.4308L22.2216 44.1534C21.8117 44.1422 21.4887 43.8011 21.4999 43.3912C21.5111 42.9813 21.8527 42.6583 22.2622 42.6695L31.528 42.9245C31.2208 41.1288 29.6897 39.7989 27.8687 39.7459L21.7367 39.5774C20.5257 39.5426 19.3382 39.2358 18.2621 38.6798L17.6381 38.3568C14.5738 36.7603 10.8814 36.9681 8.01579 38.8988L7.77026 47.8194L8.824 47.255C9.87112 46.6919 11.0963 46.5578 12.2407 46.8811L22.6472 49.8022C24.6528 50.2129 26.7371 49.9802 28.6028 49.1364L43.0202 39.8105C42.1975 38.9684 40.9235 38.7568 39.873 39.2888Z" fill="#4955A3"/>
<path d="M0.998291 49.3688L1.36389 36.0967L6.60484 36.2412L6.23924 49.5133L0.998291 49.3688Z" fill="#4955A3"/>
<path d="M23.387 8.79757V0.741964C23.387 0.332062 23.0549 0 22.645 0C22.2351 0 21.9031 0.332062 21.9031 0.741964V8.79757C21.9031 9.20748 22.2351 9.53954 22.645 9.53954C23.0549 9.53954 23.387 9.20748 23.387 8.79757Z" fill="#4955A3"/>
<path d="M29.7466 8.79753V4.98171C29.7466 4.57181 29.4146 4.23975 29.0047 4.23975C28.5948 4.23975 28.2627 4.57181 28.2627 4.98171V8.79753C28.2627 9.20743 28.5948 9.53949 29.0047 9.53949C29.4146 9.53949 29.7466 9.20743 29.7466 8.79753Z" fill="#4955A3"/>
<path d="M17.0274 8.79753V4.98171C17.0274 4.57181 16.6953 4.23975 16.2854 4.23975C15.8755 4.23975 15.5435 4.57181 15.5435 4.98171V8.79753C15.5435 9.20743 15.8755 9.53949 16.2854 9.53949C16.6953 9.53949 17.0274 9.20743 17.0274 8.79753Z" fill="#4955A3"/>
</svg>
