<svg width="51" height="50" viewBox="0 0 51 50" fill="none" xmlns="http://www.w3.org/2000/svg">
<path d="M25 10.4167C18.1062 10.4167 12.5 16.023 12.5 22.9167C12.5 29.8105 18.1062 35.4168 25 35.4168C31.8937 35.4168 37.5 29.8105 37.5 22.9167C37.5 16.023 31.8937 10.4167 25 10.4167ZM24.7396 21.3542H25.2604C27.4146 21.3542 29.1667 23.1063 29.1667 25.2605C29.1667 26.9563 28.075 28.3876 26.5625 28.9272V29.6876C26.5625 30.5501 25.8625 31.2501 25 31.2501C24.1375 31.2501 23.4375 30.5501 23.4375 29.6876V29.1668H22.3958C21.5333 29.1668 20.8333 28.4668 20.8333 27.6043C20.8333 26.7418 21.5333 26.0418 22.3958 26.0418H25.2604C25.6917 26.0418 26.0417 25.6918 26.0417 25.2605C26.0417 24.8293 25.6917 24.4793 25.2604 24.4793H24.7396C22.5854 24.4793 20.8333 22.7272 20.8333 20.573C20.8333 18.8772 21.925 17.4459 23.4375 16.9063V16.1459C23.4375 15.2834 24.1375 14.5834 25 14.5834C25.8625 14.5834 26.5625 15.2834 26.5625 16.1459V16.6667H27.6042C28.4667 16.6667 29.1667 17.3667 29.1667 18.2292C29.1667 19.0918 28.4667 19.7917 27.6042 19.7917H24.7396C24.3083 19.7917 23.9583 20.1418 23.9583 20.573C23.9583 21.0043 24.3083 21.3542 24.7396 21.3542Z" fill="#4955A3"/>
<path d="M46.3999 21.4C45.5374 21.4 44.8374 22.1 44.8374 22.9625C44.8374 32.3063 38.3333 40.1417 29.6208 42.2334V40.2854C29.6208 38.8979 27.9395 38.1959 26.9541 39.1813L22.877 43.2563C22.2666 43.8667 22.2666 44.8563 22.877 45.4667L26.9541 49.5417C27.9312 50.5188 29.6208 49.8354 29.6208 48.4375V45.4563C40.0749 43.3125 47.9624 34.0417 47.9624 22.9625C47.9624 22.1 47.2624 21.4 46.3999 21.4Z" fill="#4955A3"/>
<path d="M18.3834 41.6438C10.4751 38.873 5.1626 31.3667 5.1626 22.9626C5.1626 20.5834 5.59177 18.273 6.39802 16.1021L8.27093 17.1813C9.46885 17.8751 10.9209 16.773 10.5626 15.423L8.97927 9.51881C8.75427 8.68964 7.91677 8.19798 7.0626 8.41464L1.15635 9.99589C-0.1874 10.3563 -0.41865 12.1667 0.78135 12.8584L3.65427 14.5167C2.59593 17.1751 2.03968 20.0251 2.03968 22.9626C2.03968 32.6896 8.19177 41.3834 17.3522 44.5938C18.1793 44.8792 19.0605 44.4417 19.3438 43.6355C19.6272 42.8209 19.198 41.9292 18.3834 41.6438Z" fill="#4955A3"/>
<path d="M48.0333 10.2438L44.6729 11.1438C40.5833 4.3875 33.1291 0 25 0C19.7666 0 14.8624 1.72083 10.8145 4.97083C10.1416 5.5125 10.0354 6.49583 10.5749 7.16875C11.1187 7.84375 12.0999 7.94792 12.7729 7.40833C16.2604 4.60625 20.4875 3.125 25 3.125C31.7125 3.125 37.8854 6.59167 41.502 11.9917L39.6812 12.4792C38.3395 12.8396 38.102 14.6458 39.3041 15.3417L44.5979 18.4C44.9583 18.6083 45.3812 18.6625 45.7833 18.5562C46.1812 18.4479 46.5229 18.1875 46.7312 17.8271L49.7916 12.5333C50.4812 11.3354 49.3875 9.88542 48.0333 10.2438Z" fill="#4955A3"/>
</svg>
