<svg width="39" height="39" viewBox="0 0 39 39" fill="none" xmlns="http://www.w3.org/2000/svg">
<path d="M21.239 7.90868V12.4801H34.9534V7.90868H21.239ZM31.0595 29.6168L25.2402 25.7362C23.8875 24.8355 22.0672 25.0152 20.9154 26.1659L19.3841 27.696C18.4857 27.5666 16.3495 27.0319 14.1586 24.8411C11.9677 22.6502 11.4332 20.514 11.3037 19.6156L12.8338 18.0843C13.9845 16.9336 14.1653 15.1144 13.2624 13.7584L9.38288 7.9403C8.81031 7.08201 7.89403 6.53183 6.86721 6.43027C5.84038 6.32985 4.83481 6.68916 4.10604 7.41801L1.6808 9.8421C0.525747 10.9972 -0.0836289 12.5754 0.0101623 14.1725C0.193173 17.2819 1.54031 23.5375 8.50128 30.4985C15.4634 37.4595 21.7179 38.8066 24.8273 38.9896C26.3911 39.0874 27.9878 38.4899 29.1565 37.3188L31.5818 34.8936C32.3105 34.1648 32.6711 33.1581 32.5695 32.1324C32.468 31.1057 31.9178 30.1894 31.0595 29.6168Z" fill="url(#paint0_linear)"/>
<path d="M28.7133 0C23.0446 0 18.4275 4.59432 18.4275 10.2858C18.4275 12.0459 18.8846 13.7602 19.7531 15.2915L18.496 19.0631C18.3588 19.4745 18.4731 19.9317 18.7703 20.2288C19.1096 20.534 19.5313 20.6646 19.936 20.5031L23.7075 19.2459C25.2389 20.1144 26.9533 20.5717 28.7133 20.5717C34.4048 20.5717 38.9991 15.9544 38.9991 10.2859C38.9991 4.59432 34.4048 0 28.7133 0ZM24.1418 11.4287C23.5246 11.4287 22.999 10.903 22.999 10.2858C22.999 9.64587 23.5246 9.14293 24.1418 9.14293C24.7818 9.14293 25.2847 9.64587 25.2847 10.2858C25.2847 10.903 24.7818 11.4287 24.1418 11.4287ZM28.7133 11.4287C28.0961 11.4287 27.5704 10.903 27.5704 10.2858C27.5704 9.64587 28.0961 9.14293 28.7133 9.14293C29.3532 9.14293 29.8562 9.64587 29.8562 10.2858C29.8562 10.903 29.3532 11.4287 28.7133 11.4287ZM33.2848 11.4287C32.6675 11.4287 32.1419 10.903 32.1419 10.2858C32.1419 9.64587 32.6675 9.14293 33.2848 9.14293C33.9247 9.14293 34.4276 9.64587 34.4276 10.2858C34.4276 10.903 33.9247 11.4287 33.2848 11.4287Z" fill="url(#paint1_linear)"/>
<defs>
<linearGradient id="paint0_linear" x1="17.477" y1="39" x2="17.477" y2="6.41366" gradientUnits="userSpaceOnUse">
<stop stop-color="#BC1313"/>
<stop offset="1" stop-color="#FF5221"/>
</linearGradient>
<linearGradient id="paint1_linear" x1="28.7133" y1="20.5728" x2="28.7133" y2="0" gradientUnits="userSpaceOnUse">
<stop stop-color="#FFC2CC"/>
<stop offset="1" stop-color="#FFF2F4"/>
</linearGradient>
</defs>
</svg>
