<svg width="148" height="48" viewBox="0 0 148 48" fill="none" xmlns="http://www.w3.org/2000/svg">
<path d="M0 25.5132V3.54349C0 2.71667 0.236233 2.00797 0.826816 1.41739C1.4174 0.826809 2.1261 0.590576 3.07103 0.590576H13.1109C13.9377 0.590576 14.5283 0.826809 15.0008 1.41739C15.4733 2.00797 15.7095 2.59856 15.7095 3.30726C15.7095 4.01596 15.4733 4.72465 15.0008 5.19712C14.5283 5.55147 13.9377 5.90582 13.1109 5.90582H5.90583V11.5754H11.9298C12.7566 11.5754 13.4653 11.8116 14.0559 12.4022C14.5283 12.8747 14.7646 13.5834 14.7646 14.2921C14.7646 15.0008 14.5283 15.7095 14.0559 16.182C13.5834 16.7725 12.8747 17.0088 11.9298 17.0088H5.90583V25.5132C5.90583 26.4581 5.66959 27.2849 5.07901 27.7574C4.48843 28.348 3.77973 28.5842 2.95291 28.5842C2.1261 28.5842 1.4174 28.348 0.826816 27.7574C0.236233 27.1668 0 26.4581 0 25.5132Z" fill="white"/>
<path d="M17.5994 25.5132V3.18919C17.5994 2.24426 17.8356 1.41745 18.4262 0.94498C19.0168 0.354397 19.6073 0.118164 20.5523 0.118164C21.3791 0.118164 22.0878 0.354397 22.6784 0.94498C23.269 1.53556 23.5052 2.24426 23.5052 3.18919V25.3951C23.5052 26.34 23.269 27.1668 22.6784 27.6393C22.0878 28.2299 21.3791 28.4661 20.5523 28.4661C19.7255 28.4661 19.0168 28.2299 18.4262 27.6393C17.8356 27.1668 17.5994 26.4581 17.5994 25.5132Z" fill="white"/>
<path d="M27.0486 25.5132V3.18919C27.0486 2.24426 27.2848 1.41745 27.8754 0.94498C28.466 0.354397 29.0566 0.118164 30.0015 0.118164C30.3558 0.118164 30.8283 0.236281 31.3008 0.472514C31.7732 0.708747 32.1276 1.0631 32.4819 1.41745L44.8842 17.9538V3.18919C44.8842 2.24426 45.1204 1.41745 45.711 0.94498C46.3016 0.354397 47.0103 0.118164 47.8371 0.118164C48.6639 0.118164 49.3726 0.354397 49.9632 0.94498C50.4357 1.53556 50.79 2.24426 50.79 3.18919V25.3951C50.79 26.34 50.5538 27.1668 49.9632 27.6393C49.3726 28.2299 48.782 28.4661 47.8371 28.4661C47.4827 28.4661 47.0103 28.348 46.5378 28.1118C46.0653 27.8755 45.711 27.5212 45.3566 27.1668L32.9544 10.8668L32.8363 25.5132C32.8363 26.4581 32.6001 27.285 32.0095 27.7574C31.4189 28.348 30.7102 28.5842 29.8834 28.5842C29.0566 28.5842 28.3479 28.348 27.7573 27.7574C27.2848 27.1668 27.0486 26.4581 27.0486 25.5132Z" fill="white"/>
<path d="M55.1604 14.4102C55.1604 10.2761 56.4597 6.85076 58.9401 4.13408C61.4206 1.4174 64.6097 0 68.6257 0C70.5155 0 72.2873 0.35435 73.8228 0.944932C75.9489 1.77175 76.8938 2.95291 76.8938 4.37031C76.8938 5.07901 76.6576 5.66959 76.1851 6.26018C75.7127 6.73264 75.1221 6.96887 74.4134 6.96887C74.4134 6.96887 73.3503 6.61453 71.4605 6.02394C70.5155 5.78771 69.5706 5.55148 68.5076 5.55148C66.1452 5.55148 64.3735 6.37829 63.0742 8.15004C61.7749 9.80367 61.1843 11.9298 61.1843 14.4102C61.1843 16.8907 61.7749 18.8986 63.0742 20.5523C64.3735 22.324 66.2633 23.1508 68.6257 23.1508C69.6887 23.1508 70.6337 23.0327 71.5786 22.6784C73.7047 21.9697 74.7677 21.4972 74.7677 21.4972C75.5946 21.4972 76.1851 21.8516 76.7757 22.4421C77.2482 23.0327 77.3663 23.5052 77.3663 24.0958C77.3663 25.7494 76.3033 26.9306 74.059 27.7574C72.5235 28.348 70.6337 28.7023 68.6257 28.7023C64.7278 28.7023 61.4206 27.2849 58.9401 24.5682C56.4597 21.8516 55.1604 18.4262 55.1604 14.4102Z" fill="white"/>
<path d="M90.5953 28.8204C86.6975 28.8204 83.6264 27.403 81.146 24.6863C78.6655 21.9697 77.4844 18.5443 77.4844 14.4102C77.4844 10.2761 78.6655 6.85076 81.146 4.13408C83.5083 1.4174 86.6975 0 90.5953 0C94.375 0 97.5642 1.4174 100.045 4.13408C102.525 6.85076 103.824 10.2761 103.824 14.4102C103.824 18.5443 102.643 21.9697 100.163 24.6863C97.5642 27.403 94.4932 28.8204 90.5953 28.8204ZM90.5953 23.3871C92.9576 23.3871 94.7294 22.4421 96.0287 20.6704C97.2098 19.0168 97.8004 16.8907 97.8004 14.4102C97.8004 11.9298 97.2098 9.80367 96.0287 8.15004C94.7294 6.37829 92.9576 5.43336 90.5953 5.43336C88.3511 5.43336 86.5793 6.37829 85.1619 8.15004C83.9808 9.80367 83.3902 11.9298 83.3902 14.4102C83.3902 17.0088 83.9808 19.0168 85.1619 20.6704C86.4612 22.4421 88.233 23.3871 90.5953 23.3871Z" fill="white"/>
<path d="M106.069 25.5131V3.54344C106.069 1.53546 107.014 0.472412 109.022 0.472412H115.872C118.943 0.472412 121.424 1.18111 123.077 2.59851C124.849 4.13402 125.676 6.37824 125.676 9.33115C125.676 11.3391 124.967 13.1109 123.55 14.4102C122.251 15.5913 120.597 16.4181 118.353 16.7725L124.967 23.8595C125.44 24.4501 125.794 25.0406 125.794 25.6312C125.794 26.458 125.558 27.1667 124.967 27.7573C124.377 28.3479 123.786 28.7023 122.841 28.7023C122.487 28.7023 122.132 28.5841 121.66 28.466C121.188 28.3479 120.833 27.9936 120.597 27.7573L111.974 17.245L111.856 25.7493C111.856 26.6943 111.62 27.5211 111.029 27.9936C110.439 28.5841 109.73 28.8204 108.903 28.8204C108.077 28.8204 107.368 28.5841 106.777 27.9936C106.305 27.1667 106.069 26.458 106.069 25.5131ZM111.856 5.90577V12.7565H115.872C116.935 12.7565 117.88 12.4022 118.589 11.8116C119.298 11.221 119.534 10.3942 119.534 9.33115C119.534 8.2681 119.18 7.32317 118.589 6.73259C117.998 6.142 117.053 5.90577 115.872 5.90577H111.856Z" fill="white"/>
<path d="M128.038 25.5131V3.54344C128.038 2.59851 128.275 1.88981 128.865 1.29923C129.338 0.708645 130.164 0.472412 131.109 0.472412H137.96C140.913 0.472412 143.275 1.29923 145.165 3.07098C147.055 4.84272 148 7.08694 148 9.80362C148 12.6384 147.055 14.8826 145.165 16.5363C143.275 18.1899 141.031 19.1348 138.196 19.1348H133.944V25.5131C133.944 26.458 133.708 27.2849 133.117 27.7573C132.527 28.3479 131.818 28.5841 130.991 28.5841C130.164 28.5841 129.456 28.3479 128.865 27.7573C128.393 27.1667 128.038 26.458 128.038 25.5131ZM133.944 5.66954V13.9377H137.96C139.141 13.9377 140.086 13.5833 140.795 12.7565C141.504 11.9297 141.858 10.9848 141.858 9.80362C141.858 8.62245 141.504 7.5594 140.795 6.8507C140.086 6.02389 139.141 5.66954 137.96 5.66954H133.944Z" fill="white"/>
<path d="M3.66161 35.3169H0V34.6082H8.15004V35.3169H4.48843V44.7662H3.66161V35.3169Z" fill="white"/>
<path d="M10.2761 34.6082V38.9785C10.8667 37.9154 11.8116 37.5611 12.8746 37.5611C14.8826 37.5611 15.9457 38.8603 15.9457 40.7502V44.8843H15.237V40.7502C15.237 39.2147 14.5283 38.2698 12.8746 38.2698C11.3391 38.2698 10.2761 39.4509 10.2761 40.9864V44.8843H9.56738V34.7263H10.2761V34.6082Z" fill="white"/>
<path d="M17.2449 41.2226C17.2449 39.0965 18.8985 37.4429 20.9065 37.4429C22.9145 37.4429 24.6862 38.624 24.45 41.4588H17.9536C18.0717 43.1125 19.371 44.1755 20.9065 44.1755C21.8514 44.1755 22.9145 43.8212 23.505 43.1125L23.9775 43.4668C23.2688 44.4117 21.9695 44.8842 20.9065 44.8842C18.8985 44.8842 17.2449 43.4668 17.2449 41.2226ZM23.8594 40.9864C23.8594 39.2146 22.6782 38.2697 20.9065 38.2697C19.371 38.2697 18.1898 39.3327 17.9536 40.9864H23.8594Z" fill="white"/>
<path d="M31.1828 44.8843V38.3879H29.7654V37.7973H31.1828V37.2068C31.1828 35.7894 31.7734 34.7263 33.3089 34.7263C33.8995 34.7263 34.3719 34.9626 34.7263 35.1988L34.3719 35.6713C34.0176 35.435 33.6632 35.3169 33.3089 35.3169C32.3639 35.3169 31.8915 35.9075 31.8915 37.0886V37.6792H34.2538V38.2698H31.8915V44.8843H31.1828Z" fill="white"/>
<path d="M36.7341 35.3169C36.7341 36.0256 35.553 36.0256 35.553 35.3169C35.553 34.4901 36.7341 34.4901 36.7341 35.3169ZM35.7892 37.5611V44.8843H36.4979V37.6792H35.7892V37.5611Z" fill="white"/>
<path d="M39.2146 37.561V38.8603C39.8052 37.9153 40.7501 37.4429 41.8132 37.4429C43.703 37.4429 45.1204 38.624 45.1204 40.632V44.8842H44.4117V40.7501C44.4117 39.0965 43.3487 38.2697 41.8132 38.2697C40.2777 38.2697 39.3327 39.4508 39.3327 40.8682V44.8842H38.624V37.6791H39.2146V37.561Z" fill="white"/>
<path d="M48.3096 35.4348V37.5609H50.7901V38.1515H48.3096V42.5218C48.3096 43.4667 48.5459 44.1754 49.6089 44.1754C49.9633 44.1754 50.3176 44.0573 50.672 43.9392L50.9082 44.5298C50.4357 44.766 50.0814 44.8841 49.6089 44.8841C48.0734 44.8841 47.6009 43.9392 47.6009 42.5218V38.1515H46.0654V37.5609H47.6009V35.4348H48.3096Z" fill="white"/>
<path d="M51.9712 41.2226C51.9712 39.0965 53.6248 37.4429 55.6328 37.4429C57.6408 37.4429 59.4125 38.624 59.1763 41.4588H52.6799C52.798 43.1125 54.0973 44.1755 55.6328 44.1755C56.5777 44.1755 57.6408 43.8212 58.2314 43.1125L58.7038 43.4668C57.9951 44.4117 56.6958 44.8842 55.6328 44.8842C53.6248 44.8842 51.9712 43.4668 51.9712 41.2226ZM58.5857 40.9864C58.5857 39.2146 57.4045 38.2697 55.6328 38.2697C54.0973 38.2697 52.9161 39.3327 52.6799 40.9864H58.5857Z" fill="white"/>
<path d="M66.9721 43.8212C66.2634 44.5299 65.3185 44.8843 64.3735 44.8843C62.3655 44.8843 60.7119 43.4669 60.7119 41.2227C60.7119 38.9784 62.3655 37.561 64.3735 37.561C65.3185 37.561 66.2634 37.9154 66.9721 38.6241L66.4996 39.0965C65.909 38.506 65.0822 38.2697 64.3735 38.2697C62.7199 38.2697 61.4206 39.3328 61.4206 41.2227C61.4206 43.1125 62.838 44.1756 64.3735 44.1756C65.2003 44.1756 65.909 43.8212 66.4996 43.2306L66.9721 43.8212Z" fill="white"/>
<path d="M69.0981 34.6082V38.9785C69.6887 37.9154 70.6336 37.5611 71.6967 37.5611C73.7046 37.5611 74.7677 38.8603 74.7677 40.7502V44.8843H74.059V40.7502C74.059 39.2147 73.3503 38.2698 71.6967 38.2698C70.1612 38.2698 69.0981 39.4509 69.0981 40.9864V44.8843H68.3894V34.7263H69.0981V34.6082Z" fill="white"/>
<path d="M87.5244 34.6081V44.8842H86.8157V43.3487C86.2251 44.2937 85.0439 45.0024 83.8628 45.0024C81.8548 45.0024 80.2012 43.7031 80.2012 41.2226C80.2012 38.8603 81.8548 37.4429 83.8628 37.4429C85.1621 37.4429 86.2251 37.9154 86.8157 39.0965V34.49H87.5244V34.6081ZM80.9099 41.2226C80.9099 43.2306 82.2092 44.2937 83.8628 44.2937C85.5164 44.2937 86.8157 43.1125 86.8157 41.2226C86.8157 39.4509 85.5164 38.1516 83.8628 38.1516C82.2092 38.1516 80.9099 39.2147 80.9099 41.2226Z" fill="white"/>
<path d="M89.2961 41.2226C89.2961 39.0965 90.9498 37.4429 92.9578 37.4429C94.9657 37.4429 96.7375 38.624 96.5012 41.4588H90.0048C90.123 43.1125 91.4222 44.1755 92.9578 44.1755C93.9027 44.1755 94.9657 43.8212 95.5563 43.1125L96.0288 43.4668C95.3201 44.4117 94.0208 44.8842 92.9578 44.8842C90.9498 44.8842 89.2961 43.4668 89.2961 41.2226ZM95.9107 40.9864C95.9107 39.2146 94.7295 38.2697 92.9578 38.2697C91.4222 38.2697 90.2411 39.3327 90.0048 40.9864H95.9107Z" fill="white"/>
<path d="M97.5642 37.561H98.391L100.99 43.9393L103.588 37.561H104.415L101.344 44.8843H100.517L97.5642 37.561Z" fill="white"/>
<path d="M105.124 41.2226C105.124 39.0965 106.777 37.4429 108.785 37.4429C110.793 37.4429 112.565 38.624 112.329 41.4588H105.832C105.951 43.1125 107.25 44.1755 108.785 44.1755C109.73 44.1755 110.793 43.8212 111.384 43.1125L111.856 43.4668C111.148 44.4117 109.848 44.8842 108.785 44.8842C106.777 44.8842 105.124 43.4668 105.124 41.2226ZM111.738 40.9864C111.738 39.2146 110.557 38.2697 108.785 38.2697C107.25 38.2697 106.069 39.3327 105.832 40.9864H111.738Z" fill="white"/>
<path d="M114.927 34.6082V44.8843H114.219V34.7263H114.927V34.6082Z" fill="white"/>
<path d="M116.699 41.2226C116.699 38.9784 118.353 37.4429 120.361 37.4429C122.369 37.4429 124.022 38.8603 124.022 41.2226C124.022 43.4668 122.369 44.8842 120.361 44.8842C118.353 44.8842 116.699 43.5849 116.699 41.2226ZM123.314 41.2226C123.314 39.3327 122.014 38.1516 120.361 38.1516C118.707 38.1516 117.408 39.3327 117.408 41.2226C117.408 43.1125 118.707 44.1755 120.361 44.1755C121.896 44.1755 123.314 43.1125 123.314 41.2226Z" fill="white"/>
<path d="M125.676 47.8372V37.6792H126.385V39.3328C126.975 38.2697 128.156 37.561 129.456 37.561C131.464 37.6792 132.999 38.9784 132.999 41.2227C132.999 43.7031 131.346 45.0024 129.338 45.0024C128.156 45.0024 126.975 44.4118 126.385 43.2306V47.9553H125.676V47.8372ZM132.291 41.2227C132.291 39.2147 130.991 38.1516 129.338 38.1516C127.684 38.1516 126.385 39.4509 126.385 41.2227C126.385 42.9944 127.684 44.2937 129.338 44.2937C130.873 44.2937 132.291 43.2306 132.291 41.2227Z" fill="white"/>
<path d="M134.299 41.2226C134.299 39.0965 135.952 37.4429 137.96 37.4429C139.968 37.4429 141.74 38.624 141.504 41.4588H135.007C135.125 43.1125 136.425 44.1755 137.96 44.1755C138.905 44.1755 139.968 43.8212 140.559 43.1125L141.031 43.4668C140.323 44.4117 139.023 44.8842 137.96 44.8842C135.952 44.8842 134.299 43.4668 134.299 41.2226ZM140.913 40.9864C140.913 39.2146 139.732 38.2697 137.96 38.2697C136.425 38.2697 135.244 39.3327 135.007 40.9864H140.913Z" fill="white"/>
<path d="M144.102 37.561V38.8603C144.575 37.9154 145.52 37.561 146.465 37.561C147.055 37.561 147.528 37.6792 148 38.0335L147.646 38.6241C147.291 38.3879 146.819 38.2697 146.465 38.2697C145.165 38.2697 144.102 39.3328 144.102 40.6321V44.8843H143.394V37.6792H144.102V37.561Z" fill="white"/>
</svg>
